<?xml version="1.0" standalone="no"?>
<!DOCTYPE svg PUBLIC "-//W3C//DTD SVG 20010904//EN"
 "http://www.w3.org/TR/2001/REC-SVG-20010904/DTD/svg10.dtd">
<svg version="1.0" xmlns="http://www.w3.org/2000/svg"
 width="700.000000pt" height="700.000000pt" viewBox="0 0 700.000000 700.000000"
 preserveAspectRatio="xMidYMid meet">
<metadata>
Created by potrace 1.14, written by Peter Selinger 2001-2017
</metadata>
<g transform="translate(0.000000,700.000000) scale(0.100000,-0.100000)"
fill="#000000" stroke="none">
<path d="M2789 6552 l-145 -3 -63 -302 c-35 -166 -65 -311 -67 -322 -3 -11
-11 -51 -19 -90 -40 -196 -136 -653 -150 -715 -2 -8 -15 -74 -29 -146 -14 -72
-28 -137 -30 -145 -3 -8 -7 -25 -10 -39 -3 -20 -44 -219 -61 -300 -2 -8 -4
-22 -4 -30 -1 -13 -3 -13 -15 0 -8 8 -86 131 -174 272 l-160 258 35 69 c127
246 -61 519 -345 505 -46 -3 -54 0 -63 19 -5 12 -38 67 -74 122 -35 55 -83
132 -106 170 -23 39 -43 71 -44 73 -2 3 -125 -70 -167 -99 l-26 -19 123 -196
123 -196 -23 -35 c-111 -162 -45 -407 132 -496 62 -32 103 -40 183 -39 l65 1
90 -145 c50 -79 95 -152 100 -162 6 -9 70 -112 142 -228 l133 -211 -30 -135
c-16 -74 -31 -148 -34 -164 -3 -16 -19 -92 -35 -169 -16 -77 -39 -187 -51
-245 -12 -58 -23 -112 -25 -120 -27 -129 -88 -420 -91 -435 -2 -11 -7 -33 -10
-50 -3 -16 -10 -50 -15 -75 -6 -25 -13 -58 -15 -75 -3 -16 -7 -36 -9 -43 -4
-10 -46 -209 -61 -286 -14 -73 -46 -227 -54 -256 -5 -19 -11 -48 -13 -65 -3
-16 -8 -41 -11 -55 -3 -14 -8 -36 -10 -50 -2 -14 -9 -45 -15 -70 -10 -44 -88
-418 -97 -468 -3 -15 -12 -58 -20 -97 -26 -118 -32 -148 -40 -195 -3 -19 -10
-48 -15 -65 -4 -16 -11 -43 -14 -60 -2 -16 -7 -41 -10 -55 -3 -14 -15 -70 -26
-125 -11 -55 -27 -131 -35 -170 -8 -38 -17 -81 -20 -95 -3 -14 -7 -32 -9 -41
-5 -14 202 -15 2115 -15 1525 0 2120 3 2120 11 0 10 -35 178 -59 288 -6 26
-14 64 -17 85 -3 20 -7 44 -10 52 -5 13 -16 66 -30 140 -4 20 -44 213 -59 280
-21 97 -38 181 -42 205 -2 17 -8 46 -13 65 -5 19 -16 69 -24 110 -8 41 -18 86
-21 100 -3 14 -7 36 -10 50 -3 14 -7 36 -10 50 -7 32 -25 118 -31 150 -3 14
-20 97 -39 185 -19 88 -62 293 -95 455 -33 162 -78 378 -100 480 -21 102 -51
241 -65 310 -14 69 -32 155 -40 191 -8 36 -16 77 -19 90 -2 13 -12 60 -21 104
-9 44 -18 91 -21 105 -3 14 -21 98 -39 187 -19 90 -37 173 -39 185 -3 13 -23
111 -45 218 -23 107 -56 269 -75 360 -19 91 -42 199 -51 240 -25 117 -36 172
-41 205 -3 17 -9 46 -15 66 -8 32 -23 102 -35 169 -2 14 -15 77 -29 140 -13
63 -42 201 -64 305 -69 329 -104 500 -104 513 0 9 -91 12 -421 12 -232 0 -549
2 -706 3 -157 1 -351 1 -431 -1z"/>
</g>
</svg>
